<svg width="600" height="380" viewBox="0 0 600 380" xmlns="http://www.w3.org/2000/svg">
  <defs>
    <linearGradient id="bg3" x1="0%" y1="0%" x2="100%" y2="100%">
      <stop offset="0%" style="stop-color:#0A0C10"/>
      <stop offset="100%" style="stop-color:#1a1f2e"/>
    </linearGradient>
    <linearGradient id="gold3" x1="0%" y1="0%" x2="100%" y2="0%">
      <stop offset="0%" style="stop-color:#D4AF37"/>
      <stop offset="100%" style="stop-color:#B38F2D"/>
    </linearGradient>
  </defs>
  <rect width="600" height="380" fill="url(#bg3)" rx="16"/>

  <!-- Email mockup card -->
  <rect x="40" y="30" width="520" height="300" rx="12" fill="#161B22" stroke="rgba(212,175,55,0.2)" stroke-width="1"/>

  <!-- Email header -->
  <rect x="40" y="30" width="520" height="50" rx="12" fill="#1e2430"/>
  <rect x="40" y="68" width="520" height="12" fill="#1e2430"/>
  <text x="70" y="62" font-family="Arial" font-size="14" font-weight="bold" fill="#fff">Executive<tspan fill="#D4AF37">Signal</tspan></text>
  <rect x="420" y="45" width="110" height="20" rx="10" fill="url(#gold3)"/>
  <text x="475" y="59" font-family="Arial" font-size="10" font-weight="bold" fill="#000" text-anchor="middle">PREMIUM</text>

  <!-- Date badge -->
  <rect x="60" y="95" width="200" height="30" rx="6" fill="rgba(212,175,55,0.1)" stroke="rgba(212,175,55,0.3)" stroke-width="1"/>
  <text x="160" y="115" font-family="Arial" font-size="12" fill="#D4AF37" text-anchor="middle" font-weight="bold">📊 3/8(일) 임원 매수 신호 리포트</text>

  <!-- Table header -->
  <rect x="60" y="140" width="480" height="25" rx="4" fill="#1e2430"/>
  <text x="90" y="157" font-family="Arial" font-size="10" fill="#D4AF37" font-weight="bold">기업명</text>
  <text x="190" y="157" font-family="Arial" font-size="10" fill="#D4AF37" font-weight="bold">임원명</text>
  <text x="270" y="157" font-family="Arial" font-size="10" fill="#D4AF37" font-weight="bold">매수금액</text>
  <text x="380" y="157" font-family="Arial" font-size="10" fill="#D4AF37" font-weight="bold">단가</text>
  <text x="450" y="157" font-family="Arial" font-size="10" fill="#D4AF37" font-weight="bold">신호강도</text>

  <!-- Table rows -->
  <rect x="60" y="165" width="480" height="28" rx="0" fill="#1a1f28"/>
  <text x="90" y="183" font-family="Arial" font-size="11" fill="#D4AF37" font-weight="600">삼성전자</text>
  <text x="190" y="183" font-family="Arial" font-size="11" fill="#ccc">이재용</text>
  <text x="270" y="183" font-family="Arial" font-size="11" fill="#D4AF37" font-weight="bold">₩2.7억</text>
  <text x="380" y="183" font-family="Arial" font-size="11" fill="#ccc">₩71,200</text>
  <rect x="450" y="172" width="60" height="16" rx="8" fill="rgba(212,175,55,0.2)"/>
  <text x="480" y="184" font-family="Arial" font-size="9" fill="#D4AF37" text-anchor="middle">★★★★★</text>

  <rect x="60" y="193" width="480" height="28" fill="#161B22"/>
  <text x="90" y="211" font-family="Arial" font-size="11" fill="#D4AF37" font-weight="600">카카오</text>
  <text x="190" y="211" font-family="Arial" font-size="11" fill="#ccc">홍길동</text>
  <text x="270" y="211" font-family="Arial" font-size="11" fill="#D4AF37" font-weight="bold">₩1.1억</text>
  <text x="380" y="211" font-family="Arial" font-size="11" fill="#ccc">₩42,500</text>
  <rect x="450" y="200" width="60" height="16" rx="8" fill="rgba(212,175,55,0.15)"/>
  <text x="480" y="212" font-family="Arial" font-size="9" fill="#D4AF37" text-anchor="middle">★★★★</text>

  <rect x="60" y="221" width="480" height="28" fill="#1a1f28"/>
  <text x="90" y="239" font-family="Arial" font-size="11" fill="#D4AF37" font-weight="600">네이버</text>
  <text x="190" y="239" font-family="Arial" font-size="11" fill="#ccc">최수연</text>
  <text x="270" y="239" font-family="Arial" font-size="11" fill="#D4AF37" font-weight="bold">₩8,200만</text>
  <text x="380" y="239" font-family="Arial" font-size="11" fill="#ccc">₩194,000</text>
  <rect x="450" y="228" width="60" height="16" rx="8" fill="rgba(212,175,55,0.15)"/>
  <text x="480" y="240" font-family="Arial" font-size="9" fill="#D4AF37" text-anchor="middle">★★★★</text>

  <!-- Lock row -->
  <rect x="60" y="249" width="480" height="28" fill="#161B22"/>
  <rect x="60" y="249" width="480" height="28" fill="rgba(10,12,16,0.85)"/>
  <text x="300" y="267" font-family="Arial" font-size="11" fill="#555" text-anchor="middle">🔒 구독하면 전체 데이터를 확인할 수 있습니다</text>

  <!-- CTA at bottom -->
  <rect x="160" y="315" width="280" height="38" rx="8" fill="url(#gold3)"/>
  <text x="300" y="338" font-family="Arial" font-size="14" font-weight="bold" fill="#000" text-anchor="middle">지금 구독 시작하기 →</text>
</svg>